<?xml version="1.0" encoding="UTF-8" standalone="no"?>
<svg
   xmlns:dc="http://purl.org/dc/elements/1.1/"
   xmlns:cc="http://creativecommons.org/ns#"
   xmlns:rdf="http://www.w3.org/1999/02/22-rdf-syntax-ns#"
   xmlns:svg="http://www.w3.org/2000/svg"
   xmlns="http://www.w3.org/2000/svg"
   xmlns:sodipodi="http://sodipodi.sourceforge.net/DTD/sodipodi-0.dtd"
   xmlns:inkscape="http://www.inkscape.org/namespaces/inkscape"
   viewBox="0 0 900 1080"
   version="1.1"
   id="svg60"
   sodipodi:docname="loginSvg.svg"
   inkscape:version="0.92.5 (2060ec1f9f, 2020-04-08)"
   width="900"
   height="1080">
  <metadata
     id="metadata66">
    <rdf:RDF>
      <cc:Work
         rdf:about="">
        <dc:format>image/svg+xml</dc:format>
        <dc:type
           rdf:resource="http://purl.org/dc/dcmitype/StillImage" />
        <dc:title />
      </cc:Work>
    </rdf:RDF>
  </metadata>
  <defs
     id="defs64" />
  <sodipodi:namedview
     pagecolor="#ffffff"
     bordercolor="#666666"
     borderopacity="1"
     objecttolerance="10"
     gridtolerance="10"
     guidetolerance="10"
     inkscape:pageopacity="0"
     inkscape:pageshadow="2"
     inkscape:window-width="1920"
     inkscape:window-height="1043"
     id="namedview62"
     showgrid="false"
     showborder="true"
     inkscape:snap-grids="false"
     inkscape:snap-center="false"
     showguides="true"
     inkscape:guide-bbox="true"
     inkscape:zoom="0.61527778"
     inkscape:cx="542.48264"
     inkscape:cy="520.86857"
     inkscape:window-x="0"
     inkscape:window-y="0"
     inkscape:window-maximized="0"
     inkscape:current-layer="g1050"
     units="px"
     width="1920mm" />
  <text
     xml:space="preserve"
     style="font-style:normal;font-weight:normal;font-size:40px;line-height:1.25;font-family:sans-serif;letter-spacing:0px;word-spacing:0px;fill:#000000;fill-opacity:1;stroke:none"
     x="-18.387968"
     y="937.49323"
     id="text933"><tspan
       sodipodi:role="line"
       id="tspan931"
       x="-18.387968"
       y="972.88385" /></text>
  <g
     id="g939"
     transform="matrix(1.0608607,0,0,1.0195636,-886.79523,-359.47872)"
     style="stroke-width:0.96153188">
    <g
       style="stroke-width:1.87973332"
       transform="matrix(-0.50107842,0,0,0.52219067,1972.3883,794.15701)"
       id="g1050">
      <path
         sodipodi:nodetypes="cccscsssccsccccscc"
         inkscape:connector-curvature="0"
         id="rect889-3"
         d="m 1823.2736,-870.8072 8.4221,26.90632 c 0,0 -46.0609,288.40874 72.1829,360.93808 138.6555,72.0187 140.9412,297.93602 108.0775,365.5544 -56.1832,115.598953 -8.3225,236.62024 97.4859,310.92722 106.1397,74.53942 14.6852,254.60768 -44.1438,301.95591 -68.4599,55.09981 -211.2086,153.98705 -87.0229,277.97873 81.9375,81.80936 -40.0546,193.22916 -104.2735,197.38096 -212.7772,13.7562 -280.7303,224.22398 -280.7303,224.22398 h -114.6677 c -4.7461,1.5356 -9.6559,2.3446 -14.6879,2.3446 H 560.96468 l -1.327,-120.7233 -2.2934,-1945.46425 76.5676,0.32189 h 830.00402 c 2.0125,0 4.005,0.13329 5.9755,0.38605 z"
         style="opacity:1;fill:#3d5af1;fill-opacity:1;stroke:none;stroke-width:93.98667908;stroke-miterlimit:4;stroke-dasharray:none;stroke-opacity:1" />
      <g
         id="g878"
         transform="translate(866.51183,-137.37188)">
        <ellipse
           id="ellipse959"
           ry="12"
           rx="158"
           cy="539.73151"
           cx="158"
           style="fill:#3d5af1;fill-opacity:1;stroke-width:1.87973332" />
        <path
           id="path961"
           transform="translate(-203.5,-174.13424)"
           d="m 324.27227,296.55377 c 27.49676,-11.6953 61.74442,-4.28528 95.19092,0.85757 0.31124,-6.228 4.08385,-13.80782 0.132,-18.15284 -4.80115,-5.2788 -4.35917,-10.82529 -1.47008,-16.40375 7.38788,-14.265 -3.1969,-29.44375 -13.88428,-42.0647 a 23.66937,23.66937 0 0 0 -19.75537,-8.29179 l -19.7975,1.41411 A 23.70939,23.70939 0 0 0 343.635,230.85851 v 0 c -4.72724,6.42917 -7.25736,12.84055 -5.66438,19.21854 -7.08065,4.83882 -8.27029,10.67977 -5.08851,17.2644 2.698,4.14592 2.66928,8.18161 -0.12275,12.1056 a 55.89079,55.89079 0 0 0 -8.31011,16.5061 z"
           inkscape:connector-curvature="0"
           style="fill:#2f2e41;stroke-width:1.87973332" />
        <path
           id="path963"
           transform="translate(-203.5,-174.13424)"
           d="M 977.70889,651.09727 H 417.29111 A 18.79111,18.79111 0 0 1 398.5,632.30616 v 0 q 304.727,-35.41512 598,0 v 0 a 18.79111,18.79111 0 0 1 -18.79111,18.79111 z"
           inkscape:connector-curvature="0"
           style="fill:#2f2e41;stroke-width:1.87973332" />
        <path
           id="path965"
           transform="translate(-203.5,-174.13424)"
           d="m 996.5,633.41151 -598,-1.10536 69.30611,-116.61553 0.3316,-0.55268 V 258.13057 a 23.7522,23.7522 0 0 1 23.75418,-23.75418 H 899.792 a 23.7522,23.7522 0 0 1 23.75418,23.75418 v 258.77592 z"
           inkscape:connector-curvature="0"
           style="fill:#3f3d56;stroke-width:1.87973332" />
        <path
           id="path967"
           transform="translate(-203.5,-174.13424)"
           d="m 491.35028,250.95679 a 7.74623,7.74623 0 0 0 -7.73753,7.73753 v 234.33641 a 7.74657,7.74657 0 0 0 7.73753,7.73752 h 412.29944 a 7.74691,7.74691 0 0 0 7.73753,-7.73752 V 258.69432 a 7.74657,7.74657 0 0 0 -7.73753,-7.73753 z"
           inkscape:connector-curvature="0"
           style="fill:#282c34;fill-opacity:1;stroke-width:1.87973332" />
        <path
           id="path969"
           transform="translate(-203.5,-174.13424)"
           d="m 493.07794,531.71835 a 3.32522,3.32522 0 0 0 -3.01275,1.93006 l -21.35537,46.42514 a 3.31594,3.31594 0 0 0 3.01221,4.7021 h 449.09208 a 3.3157,3.3157 0 0 0 2.96526,-4.79925 L 900.5668,533.55126 a 3.29926,3.29926 0 0 0 -2.96526,-1.83291 z"
           inkscape:connector-curvature="0"
           style="fill:#2f2e41;stroke-width:1.87973332" />
        <circle
           id="circle971"
           r="4.9741201"
           cy="67.979668"
           cx="492.34195"
           style="fill:#ffffff;stroke-width:1.87973332" />
        <path
           id="path973"
           transform="translate(-203.5,-174.13424)"
           d="m 651.69986,593.61853 a 3.32114,3.32114 0 0 0 -3.20165,2.4536 l -5.35679,19.89649 a 3.31576,3.31576 0 0 0 3.20166,4.17856 h 101.874 a 3.31531,3.31531 0 0 0 3.13257,-4.40093 l -6.88691,-19.89649 a 3.31784,3.31784 0 0 0 -3.13366,-2.23123 z"
           inkscape:connector-curvature="0"
           style="fill:#2f2e41;stroke-width:1.87973332" />
        <polygon
           id="polygon975"
           points="264.649,337.135 720.046,337.135 720.046,341.556 264.306,341.556 264.649,341.004 "
           style="fill:#2f2e41;stroke-width:1.87973332" />
        <circle
           id="circle977"
           r="77.375229"
           cy="77.375229"
           cx="707.33459"
           style="fill:#192575;fill-opacity:1;stroke-width:1.87973332" />
        <path
           id="path979"
           transform="translate(-203.5,-174.13424)"
           d="m 942.89,285.223 h -64.11089 a 4.42582,4.42582 0 0 1 -4.42144,-4.42145 v -38.68764 a 4.42616,4.42616 0 0 1 4.42144,-4.42144 H 942.89 a 4.42616,4.42616 0 0 1 4.42144,4.42144 v 38.68761 A 4.42582,4.42582 0 0 1 942.89,285.223 Z m -64.11091,-43.10906 v 38.68761 h 64.11415 l -0.003,-38.68764 z"
           inkscape:connector-curvature="0"
           style="fill:#ffffff;stroke-width:1.87973332" />
        <path
           id="path981"
           transform="translate(-203.5,-174.13424)"
           d="m 930.73105,242.11391 h -39.793 v -17.68577 c 0,-12.80987 8.36792,-22.10721 19.89649,-22.10721 11.52857,0 19.89648,9.29734 19.89648,22.10721 z m -35.37153,-4.42144 h 30.95009 v -13.26433 c 0,-10.413 -6.36338,-17.68576 -15.475,-17.68576 -9.11162,0 -15.47505,7.27281 -15.47505,17.68576 z"
           inkscape:connector-curvature="0"
           style="fill:#ffffff;stroke-width:1.87973332" />
        <circle
           id="circle983"
           r="4.4214401"
           cy="86.218109"
           cx="707.33459"
           style="fill:#ffffff;stroke-width:1.87973332" />
        <path
           id="path985"
           transform="translate(-203.5,-174.13424)"
           d="M 856.81994,421.28372 H 538.18006 a 5.90767,5.90767 0 0 1 -5.90073,-5.90073 V 336.342 a 5.90767,5.90767 0 0 1 5.90073,-5.90072 h 318.63988 a 5.90767,5.90767 0 0 1 5.90073,5.90072 v 79.041 a 5.90767,5.90767 0 0 1 -5.90073,5.90072 z m -318.63988,-88.4821 a 3.5443,3.5443 0 0 0 -3.54043,3.54043 V 415.383 a 3.54431,3.54431 0 0 0 3.54043,3.54044 h 318.63988 a 3.54431,3.54431 0 0 0 3.54043,-3.54044 v -79.041 a 3.5443,3.5443 0 0 0 -3.54043,-3.54043 z"
           inkscape:connector-curvature="0"
           style="fill:#e6e6e6;stroke-width:1.87973332" />
        <circle
           id="circle987"
           r="24.036449"
           cy="198.69547"
           cx="384.19022"
           style="fill:#e6e6e6;stroke-width:1.87973332" />
        <path
           id="path989"
           transform="translate(-203.5,-174.13424)"
           d="m 643.203,356.80541 a 4.00608,4.00608 0 1 0 0,8.01215 h 188.85774 a 4.006075,4.006075 0 0 0 0,-8.01215 z"
           inkscape:connector-curvature="0"
           style="fill:#e6e6e6;stroke-width:1.87973332" />
        <path
           id="path991"
           transform="translate(-203.5,-174.13424)"
           d="m 643.203,380.84186 a 4.00607,4.00607 0 1 0 0,8.01214 h 81.266 a 4.00607,4.00607 0 1 0 0,-8.01214 z"
           inkscape:connector-curvature="0"
           style="fill:#e6e6e6;stroke-width:1.87973332" />
        <path
           id="path993"
           transform="translate(-203.5,-174.13424)"
           d="m 467.022,382.46241 -58.9031,31.31559 -0.74561,-26.09629 c 19.22553,-3.20948 37.51669,-8.7974 54.42941,-17.8946 l 6.1605,-15.22008 a 10.31753,10.31753 0 0 1 17.53643,-2.67788 v 0 a 10.31753,10.31753 0 0 1 -0.90847,14.06885 z"
           inkscape:connector-curvature="0"
           style="fill:#ffb8b8;stroke-width:1.87973332" />
        <path
           id="path995"
           transform="translate(-203.5,-174.13424)"
           d="m 323.09819,563.26707 v 0 a 11.57378,11.57378 0 0 1 1.46928,-9.36311 l 12.93931,-19.85777 a 22.61221,22.61221 0 0 1 29.335,-7.73927 v 0 c -5.438,9.25647 -4.67994,17.37679 1.87806,24.43365 a 117.63085,117.63085 0 0 0 -27.93606,19.04492 11.57386,11.57386 0 0 1 -17.68559,-6.51842 z"
           inkscape:connector-curvature="0"
           style="fill:#2f2e41;stroke-width:1.87973332" />
        <path
           id="path997"
           transform="translate(-203.5,-174.13424)"
           d="m 469.70475,537.30274 v 0 a 22.20314,22.20314 0 0 1 -18.87085,10.77909 l -85.96027,0.65122 -3.728,-21.62264 38.026,-11.18413 -32.06116,-24.60507 35.04353,-41.00844 63.65,59.32431 a 22.20317,22.20317 0 0 1 3.90075,27.66566 z"
           inkscape:connector-curvature="0"
           style="fill:#2f2e41;stroke-width:1.87973332" />
        <path
           id="path999"
           transform="translate(-203.5,-174.13424)"
           d="M 351.45266,685.17939 H 331.32124 C 313.24615,561.28167 294.84741,437.03753 349.21584,390.6641 l 64.12231,10.43852 -8.20169,54.42938 -35.7892,41.00845 z"
           inkscape:connector-curvature="0"
           style="fill:#2f2e41;stroke-width:1.87973332" />
        <path
           id="path1001"
           transform="translate(-203.5,-174.13424)"
           d="m 369.14917,713.24594 v 0 a 11.57381,11.57381 0 0 1 -9.3632,-1.46873 l -21.85854,-2.93814 a 22.61221,22.61221 0 0 1 -7.741,-29.33451 v 0 c 9.2568,5.43749 17.37707,4.67891 24.43354,-1.8795 4.98593,10.06738 13.20093,9.45331 21.04657,17.93494 a 11.57385,11.57385 0 0 1 -6.51737,17.68594 z"
           inkscape:connector-curvature="0"
           style="fill:#2f2e41;stroke-width:1.87973332" />
        <path
           id="path1003"
           transform="translate(-203.5,-174.13424)"
           d="m 399.1716,307.90158 -37.28042,-8.94731 c 6.19168,-12.6739 6.70155,-26.77618 3.728,-41.75406 l 25.35068,-0.74561 c 0.79435,18.6254 3.19746,36.02621 8.20174,51.44698 z"
           inkscape:connector-curvature="0"
           style="fill:#ffb8b8;stroke-width:1.87973332" />
        <path
           id="path1005"
           transform="translate(-203.5,-174.13424)"
           d="m 409.41752,423.55243 c -27.13873,18.49308 -46.31418,0.63272 -60.94729,-26.92346 2.03338,-16.86188 -1.259,-37.04061 -7.35672,-58.96635 a 40.13762,40.13762 0 0 1 24.50567,-48.40124 v 0 l 32.06116,13.421 c 27.22362,22.19038 32.582,46.227 22.36825,71.5784 z"
           inkscape:connector-curvature="0"
           style="fill:#192575;fill-opacity:1;stroke-width:1.87973332" />
        <path
           id="path1007"
           transform="translate(-203.5,-174.13424)"
           d="m 331.32124,326.54178 -29.82434,15.65778 52.9382,31.31555 7.366,18.16951 a 9.63673,9.63673 0 0 1 -5.78925,12.73088 v 0 a 9.63673,9.63673 0 0 1 -12.76159,-8.54442 l -0.74489,-12.66307 -67.2838,-22.20366 a 15.73306,15.73306 0 0 1 -9.87265,-9.61147 v 0 a 15.733,15.733 0 0 1 5.90262,-18.30258 l 54.10485,-37.11845 z"
           inkscape:connector-curvature="0"
           style="fill:#ffb8b8;stroke-width:1.87973332" />
        <path
           id="path1009"
           transform="translate(-203.5,-174.13424)"
           d="m 361.14557,329.52422 c -12.43861,-5.4511 -23.74934,0.47044 -38.026,5.21926 l -2.23683,-39.51725 c 14.17612,-7.55568 27.69209,-9.59281 40.26285,-3.728 z"
           inkscape:connector-curvature="0"
           style="fill:#192575;fill-opacity:1;stroke-width:1.87973332" />
        <circle
           id="circle1011"
           r="23.802111"
           cy="78.092506"
           cx="172.52496"
           style="fill:#ffb8b8;stroke-width:1.87973332" />
        <path
           id="path1013"
           transform="translate(-203.5,-174.13424)"
           d="m 404.5,249.22353 c -23.56616,2.30811 -41.52338,-1.54606 -53,-12.52007 v -8.8377 h 51 z"
           inkscape:connector-curvature="0"
           style="fill:#2f2e41;stroke-width:1.87973332" />
      </g>
    </g>
  </g>
</svg>
