<?xml version="1.0" encoding="UTF-8" standalone="no"?>
<svg
   xmlns:dc="http://purl.org/dc/elements/1.1/"
   xmlns:cc="http://creativecommons.org/ns#"
   xmlns:rdf="http://www.w3.org/1999/02/22-rdf-syntax-ns#"
   xmlns:svg="http://www.w3.org/2000/svg"
   xmlns="http://www.w3.org/2000/svg"
   xmlns:sodipodi="http://sodipodi.sourceforge.net/DTD/sodipodi-0.dtd"
   xmlns:inkscape="http://www.inkscape.org/namespaces/inkscape"
   viewBox="0 0 900 1080"
   version="1.1"
   id="svg60"
   sodipodi:docname="RegisterSvg.svg"
   inkscape:version="0.92.5 (2060ec1f9f, 2020-04-08)"
   width="900"
   height="1080">
  <metadata
     id="metadata66">
    <rdf:RDF>
      <cc:Work
         rdf:about="">
        <dc:format>image/svg+xml</dc:format>
        <dc:type
           rdf:resource="http://purl.org/dc/dcmitype/StillImage" />
        <dc:title></dc:title>
      </cc:Work>
    </rdf:RDF>
  </metadata>
  <defs
     id="defs64" />
  <sodipodi:namedview
     pagecolor="#ffffff"
     bordercolor="#666666"
     borderopacity="1"
     objecttolerance="10"
     gridtolerance="10"
     guidetolerance="10"
     inkscape:pageopacity="0"
     inkscape:pageshadow="2"
     inkscape:window-width="1920"
     inkscape:window-height="1043"
     id="namedview62"
     showgrid="false"
     showborder="true"
     inkscape:snap-grids="false"
     inkscape:snap-center="false"
     showguides="true"
     inkscape:guide-bbox="true"
     inkscape:zoom="0.87013418"
     inkscape:cx="877.19968"
     inkscape:cy="593.74268"
     inkscape:window-x="0"
     inkscape:window-y="0"
     inkscape:window-maximized="1"
     inkscape:current-layer="g939"
     units="px"
     width="1920mm" />
  <text
     xml:space="preserve"
     style="font-style:normal;font-weight:normal;font-size:40px;line-height:1.25;font-family:sans-serif;letter-spacing:0px;word-spacing:0px;fill:#000000;fill-opacity:1;stroke:none"
     x="-18.387968"
     y="937.49323"
     id="text933"><tspan
       sodipodi:role="line"
       id="tspan931"
       x="-18.387968"
       y="972.88385" /></text>
  <g
     id="g939"
     transform="matrix(1.0608607,0,0,1.0195636,-886.79523,-359.47872)"
     style="stroke-width:0.96153188">
    <path
       sodipodi:nodetypes="cccscsssccsccccscc"
       inkscape:connector-curvature="0"
       id="rect889"
       d="m 1465.6863,344.94607 4.2201,14.05023 c 0,0 -23.0801,150.60435 36.1693,188.4785 69.4773,37.60749 70.6226,155.57941 54.1553,190.88909 -28.1522,60.3647 -4.1702,123.56089 48.8481,162.3633 53.1843,38.92379 7.3584,132.95381 -22.1195,157.67861 -34.3038,28.7726 -105.8321,80.4106 -43.6053,145.1579 41.0571,42.7201 -20.0705,100.9025 -52.2492,103.0705 -106.6181,7.1834 -140.6679,117.0877 -140.6679,117.0877 h -57.4575 c -2.3782,0.8019 -4.8384,1.2243 -7.3598,1.2243 H 833.17052 l -0.6649,-63.0406 -1.1492,-1015.90332 38.3664,0.16809 h 415.89708 c 1.0084,0 2.0068,0.0696 2.9942,0.20159 z"
       style="opacity:1;fill:#3d5af1;fill-opacity:1;stroke:none;stroke-width:48.07659531;stroke-miterlimit:4;stroke-dasharray:none;stroke-opacity:1" />
    <g
       id="g419"
       transform="matrix(0.4822907,0,0,0.49203892,966.56774,718.05235)"
       style="stroke-width:1.89789927">
      <ellipse
         id="ellipse232"
         ry="32.5"
         rx="416"
         cy="645.87634"
         cx="426"
         style="fill:#3d5af1;fill-opacity:1;stroke-width:1.89789927" />
      <polygon
         id="polygon234"
         points="755.975,616.692 759.874,581.601 779.369,585.5 783.268,614.093 "
         style="fill:#a0616a;stroke-width:1.89789927" />
      <path
         id="path236"
         transform="translate(-179,-110.81181)"
         d="m 829.70151,303.81246 c 0,0 2.59933,35.091 2.59933,36.39069 0,1.29969 -18.19534,90.97675 -18.19534,90.97675 0,0 -25.99336,49.38737 0,48.0877 25.99336,-1.29967 18.19534,-46.788 18.19534,-46.788 l 27.293,-75.38072 -11.697,-53.28638 z"
         inkscape:connector-curvature="0"
         style="fill:#a0616a;stroke-width:1.89789927" />
      <polygon
         id="polygon238"
         points="716.985,616.692 713.086,581.601 693.591,585.5 689.692,614.093 "
         style="fill:#a0616a;stroke-width:1.89789927" />
      <path
         id="path240"
         transform="translate(-179,-110.81181)"
         d="m 842.69819,428.58056 -6.49834,9.09768 c 0,0 -3.899,38.99 0,51.9867 3.899,12.9967 11.697,72.7814 11.697,76.6804 0,3.899 1.29966,6.49834 0,7.798 -1.29966,1.29966 -5.19867,1.29967 -2.59934,3.899 2.59933,2.59933 2.59934,10.39734 2.59934,10.39734 v 6.49832 l 16.89568,96.17542 c 0,0 -10.39734,11.697 -2.59934,11.697 7.798,0 36.3907,0 35.091,-12.99667 l -2.59933,-1.29967 c 0,0 -3.899,-85.77807 -2.59934,-89.67707 1.29966,-3.899 0,-11.697 0,-11.697 0,0 -2.59934,-3.899 0,-5.19868 2.59934,-1.29968 2.59934,-11.697 2.59934,-11.697 l 11.697,-79.27974 c 0,0 10.39734,53.28638 16.89568,58.48505 6.49834,5.19867 5.19867,18.19535 5.19867,18.19535 l 5.19867,114.37076 c 0,0 -5.19867,12.99668 0,15.596 5.19867,2.59932 27.293,11.697 28.59269,-1.29966 1.29969,-12.99666 7.798,-126.06777 7.798,-131.26645 0,-5.19868 -1.29966,-7.798 0,-11.697 1.29966,-3.899 -1.29966,-3.899 0,-3.899 1.29966,0 -2.59933,-3.899 -2.59933,-6.49834 v -63.6837 c 0,0 1.29967,-12.99667 2.59933,-15.596 1.29966,-2.59933 -1.29966,-5.19867 0,-9.09767 1.29966,-3.899 -2.59933,-16.89568 -2.59933,-16.89568 l -58.485,-15.596 z"
         inkscape:connector-curvature="0"
         style="fill:#192575;fill-opacity:1;stroke-width:1.89789927" />
      <path
         id="path242"
         transform="translate(-179,-110.81181)"
         d="m 888.18656,719.70614 c 0,0 6.49834,-6.49834 -2.59934,-6.49834 a 42.30349,42.30349 0 0 0 -16.89568,3.899 l -6.49834,23.394 c 0,0 -26.6432,21.44454 3.24917,18.8452 29.89237,-2.59934 25.34352,-0.64983 25.34352,-0.64983 0,0 9.09768,-2.59934 10.39734,-5.19867 1.29966,-2.59933 -2.59933,-40.2897 -2.59933,-40.2897 0,0 -3.899,10.39734 -10.39734,6.49834 z"
         inkscape:connector-curvature="0"
         style="fill:#192575;fill-opacity:1;stroke-width:1.89789927" />
      <path
         id="path244"
         transform="translate(-179,-110.81181)"
         d="m 944.07227,719.70614 c 0,0 -6.49834,-6.49834 2.59934,-6.49834 a 42.30349,42.30349 0 0 1 16.89568,3.899 l 6.49833,23.394 c 0,0 26.64319,21.44452 -3.24916,18.84518 -29.89235,-2.59934 -29.24253,-0.64983 -29.24253,-0.64983 0,0 -9.09767,-2.59934 -10.39734,-5.19867 -1.29967,-2.59933 6.49834,-40.2897 6.49834,-40.2897 0,0 3.899,10.39736 10.39734,6.49836 z"
         inkscape:connector-curvature="0"
         style="fill:#192575;fill-opacity:1;stroke-width:1.89789927" />
      <circle
         id="circle246"
         r="33.791359"
         cy="56.53553"
         cx="680.59387"
         style="fill:#a0616a;stroke-width:1.89789927" />
      <path
         id="path248"
         transform="translate(-179,-110.81181)"
         d="m 847.89686,192.041 c 0,0 5.19867,25.99336 5.19867,29.89236 0,3.899 22.09435,15.596 22.09435,15.596 l 24.69369,-31.192 c 0,0 -15.596,-22.09435 -15.596,-27.293 z"
         inkscape:connector-curvature="0"
         style="fill:#a0616a;stroke-width:1.89789927" />
      <path
         id="path250"
         transform="translate(-179,-110.81181)"
         d="m 867.39187,225.83239 c 0,0 -11.32759,-3.015 -14.76147,-8.00583 0,0 -35.92557,35.29886 -35.92557,41.79719 l 28.59269,50.68705 c 0,0 0,18.19534 2.59934,19.495 2.59934,1.29966 0,0 0,5.19867 0,5.19867 -7.798,38.99 -5.19867,44.18871 2.59933,5.19871 5.19867,1.29966 2.59933,9.09767 -2.59934,7.79801 -9.09767,49.38738 -9.09767,49.38738 0,0 23.394,-7.798 57.18538,5.19867 33.79138,12.99667 74.08106,-5.19867 74.08106,-5.19867 0,0 -10.39734,-23.394 -7.798,-31.192 2.59934,-7.798 -6.49834,-22.09435 -6.49834,-22.09435 l -6.49833,-119.56943 c 0,0 9.09767,-53.28638 2.59933,-55.88572 l -12.99669,-5.19873 -41.62054,-5.11533 c 0,0 -10.36617,25.91006 -27.26185,27.20972 z"
         inkscape:connector-curvature="0"
         style="fill:#d0cde1;stroke-width:1.89789927" />
      <path
         id="path252"
         transform="translate(-179,-110.81181)"
         d="m 829.70151,250.52608 -12.99668,9.09767 c 0,0 -6.49834,19.495 0,28.59269 6.49834,9.09769 9.09768,22.09436 9.09768,22.09436 l 25.99335,-2.59934 z"
         inkscape:connector-curvature="0"
         style="fill:#d0cde1;stroke-width:1.89789927" />
      <path
         id="path254"
         transform="translate(-179,-110.81181)"
         d="m 833.79434,131.63567 -5.86153,-2.34663 c 0,0 12.25588,-13.493 29.30768,-12.31967 l -4.79592,-5.27995 c 0,0 11.72307,-4.69318 22.38037,7.62649 5.60233,6.4762 12.0843,14.08861 16.12514,22.66391 h 6.2773 l -2.61991,5.76875 9.16968,5.76874 -9.41178,-1.03622 a 31.921,31.921 0 0 1 -0.8902,14.94041 l 0.25228,4.55962 c 0,0 -10.90958,-16.87938 -10.90958,-19.226 v 5.86654 c 0,0 -5.86153,-5.27986 -5.86153,-8.79977 l -3.19718,4.10659 -1.59858,-6.45322 -19.716,6.45322 3.19717,-5.27986 -12.25588,1.76 4.79592,-6.45322 c 0,0 -13.85447,7.6265 -14.38744,14.07972 -0.53281,6.45313 -7.46,14.6663 -7.46,14.6663 l -3.19717,-5.86654 c 0,0 -4.79589,-26.39944 10.65716,-35.19921 z"
         inkscape:connector-curvature="0"
         style="fill:#2f2e41;stroke-width:1.89789927" />
      <rect
         id="rect256"
         height="362.79825"
         width="516.46277"
         y="282.832"
         x="146.16914"
         style="fill:#f2f2f2;stroke-width:1.89789927" />
      <rect
         id="rect258"
         height="226.37411"
         width="129.67789"
         y="421.25613"
         x="189.64496"
         style="fill:#3f3d56;stroke-width:1.89789927" />
      <rect
         id="rect260"
         height="32.563412"
         width="34.93166"
         y="434.83658"
         x="213.63162"
         style="fill:#f2f2f2;stroke-width:1.89789927" />
      <rect
         id="rect262"
         height="32.563412"
         width="34.93166"
         y="434.83658"
         x="260.40454"
         style="fill:#f2f2f2;stroke-width:1.89789927" />
      <rect
         id="rect264"
         height="33.74754"
         width="34.93166"
         y="479.24124"
         x="213.63162"
         style="fill:#f2f2f2;stroke-width:1.89789927" />
      <rect
         id="rect266"
         height="33.74754"
         width="34.93166"
         y="479.24124"
         x="260.40454"
         style="fill:#f2f2f2;stroke-width:1.89789927" />
      <circle
         id="circle268"
         r="8.24541"
         cy="549.68359"
         cx="302.83203"
         style="fill:#192575;fill-opacity:1;stroke-width:1.89789927" />
      <rect
         id="rect270"
         height="215.13036"
         width="256.35745"
         y="399.76697"
         x="362.79868"
         style="fill:#3f3d56;stroke-width:1.89789927" />
      <polygon
         id="polygon272"
         points="133.831,264.092 143.148,244.603 155.337,219.117 164.654,199.628 175.455,177.051 667.407,177.051 673.786,199.628 679.295,219.117 686.499,244.603 692.008,264.092 716.602,351.134 92.199,351.134 "
         style="fill:#3f3d56;stroke-width:1.89789927" />
      <rect
         id="rect274"
         height="55.469151"
         width="8.9949999"
         y="488.96738"
         x="371.79367"
         style="fill:#192575;fill-opacity:1;stroke-width:1.89789927" />
      <rect
         id="rect276"
         height="6.7462502"
         width="8.9949999"
         y="497.21277"
         x="371.79367"
         style="fill:#f2f2f2;stroke-width:1.89789927" />
      <rect
         id="rect278"
         height="6.7462502"
         width="8.9949999"
         y="529.44489"
         x="371.79367"
         style="fill:#f2f2f2;stroke-width:1.89789927" />
      <rect
         id="rect280"
         height="55.469151"
         width="21.737909"
         y="488.96738"
         x="385.28616"
         style="fill:#192575;fill-opacity:1;stroke-width:1.89789927" />
      <rect
         id="rect282"
         height="6.7462502"
         width="21.737909"
         y="497.21277"
         x="385.28616"
         style="fill:#f2f2f2;stroke-width:1.89789927" />
      <rect
         id="rect284"
         height="6.7462502"
         width="21.737909"
         y="529.44489"
         x="385.28616"
         style="fill:#f2f2f2;stroke-width:1.89789927" />
      <rect
         id="rect286"
         height="55.469151"
         width="8.9949999"
         y="488.96738"
         x="412.27115"
         style="fill:#192575;fill-opacity:1;stroke-width:1.89789927" />
      <rect
         id="rect288"
         height="6.7462502"
         width="8.9949999"
         y="497.21277"
         x="412.27115"
         style="fill:#f2f2f2;stroke-width:1.89789927" />
      <rect
         id="rect290"
         height="6.7462502"
         width="8.9949999"
         y="529.44489"
         x="412.27115"
         style="fill:#f2f2f2;stroke-width:1.89789927" />
      <rect
         id="rect292"
         height="55.469151"
         width="8.9949999"
         y="488.96738"
         x="425.76367"
         style="fill:#192575;fill-opacity:1;stroke-width:1.89789927" />
      <rect
         id="rect294"
         height="6.7462502"
         width="8.9949999"
         y="497.21277"
         x="425.76367"
         style="fill:#f2f2f2;stroke-width:1.89789927" />
      <rect
         id="rect296"
         height="6.7462502"
         width="8.9949999"
         y="529.44489"
         x="425.76367"
         style="fill:#f2f2f2;stroke-width:1.89789927" />
      <rect
         id="rect298"
         transform="rotate(-20.65411,234.43796,1063.2761)"
         height="55.469151"
         width="8.9949999"
         y="599.77917"
         x="623.50323"
         style="fill:#192575;fill-opacity:1;stroke-width:1.89789927" />
      <rect
         id="rect300"
         transform="rotate(-20.65411,228.75343,1048.1959)"
         height="6.7462502"
         width="8.9949999"
         y="609.06042"
         x="617.81873"
         style="fill:#f2f2f2;stroke-width:1.89789927" />
      <rect
         id="rect302"
         transform="rotate(-20.65411,240.12251,1078.3563)"
         height="6.7462502"
         width="8.9949999"
         y="639.22083"
         x="629.18774"
         style="fill:#f2f2f2;stroke-width:1.89789927" />
      <rect
         id="rect304"
         height="55.469151"
         width="21.737909"
         y="488.96738"
         x="589.17279"
         style="fill:#192575;fill-opacity:1;stroke-width:1.89789927" />
      <rect
         id="rect306"
         height="6.7462502"
         width="21.737909"
         y="497.21277"
         x="589.17279"
         style="fill:#f2f2f2;stroke-width:1.89789927" />
      <rect
         id="rect308"
         height="6.7462502"
         width="21.737909"
         y="529.44489"
         x="589.17279"
         style="fill:#f2f2f2;stroke-width:1.89789927" />
      <rect
         id="rect310"
         height="55.469151"
         width="8.9949999"
         y="488.96738"
         x="574.93073"
         style="fill:#192575;fill-opacity:1;stroke-width:1.89789927" />
      <rect
         id="rect312"
         height="6.7462502"
         width="8.9949999"
         y="497.21277"
         x="574.93073"
         style="fill:#f2f2f2;stroke-width:1.89789927" />
      <rect
         id="rect314"
         height="6.7462502"
         width="8.9949999"
         y="529.44489"
         x="574.93073"
         style="fill:#f2f2f2;stroke-width:1.89789927" />
      <rect
         id="rect316"
         height="55.469151"
         width="8.9949999"
         y="488.96738"
         x="561.43823"
         style="fill:#192575;fill-opacity:1;stroke-width:1.89789927" />
      <rect
         id="rect318"
         height="6.7462502"
         width="8.9949999"
         y="497.21277"
         x="561.43823"
         style="fill:#f2f2f2;stroke-width:1.89789927" />
      <rect
         id="rect320"
         height="6.7462502"
         width="8.9949999"
         y="529.44489"
         x="561.43823"
         style="fill:#f2f2f2;stroke-width:1.89789927" />
      <rect
         id="rect322"
         transform="rotate(-69.34589,556.59904,701.49276)"
         height="8.9949999"
         width="55.469151"
         y="623.01624"
         x="698.46155"
         style="fill:#192575;fill-opacity:1;stroke-width:1.89789927" />
      <rect
         id="rect324"
         transform="rotate(-69.34589,562.28357,686.41255)"
         height="8.9949999"
         width="6.7462502"
         y="607.93604"
         x="728.50757"
         style="fill:#f2f2f2;stroke-width:1.89789927" />
      <rect
         id="rect326"
         transform="rotate(-69.34589,550.9145,716.57296)"
         height="8.9949999"
         width="6.7462502"
         y="638.0965"
         x="717.13849"
         style="fill:#f2f2f2;stroke-width:1.89789927" />
      <rect
         id="rect328"
         height="5.2470798"
         width="256.35745"
         y="544.43652"
         x="362.79868"
         style="fill:#f2f2f2;stroke-width:1.89789927" />
      <rect
         id="rect330"
         height="55.469151"
         width="47.22374"
         y="488.96738"
         x="474.48657"
         style="fill:#192575;fill-opacity:1;stroke-width:1.89789927" />
      <rect
         id="rect332"
         height="10.49416"
         width="23.98666"
         y="500.96069"
         x="486.1051"
         style="fill:#f2f2f2;stroke-width:1.89789927" />
      <rect
         id="rect334"
         height="47.97332"
         width="4.4974999"
         y="399.76697"
         x="488.72864"
         style="fill:#f2f2f2;stroke-width:1.89789927" />
      <circle
         id="circle336"
         r="7.4958301"
         cy="447.7403"
         cx="490.97739"
         style="fill:#f2f2f2;stroke-width:1.89789927" />
      <polygon
         id="polygon338"
         points="164.654,199.628 673.786,199.628 679.295,219.117 155.337,219.117 "
         style="fill:#192575;fill-opacity:1;stroke-width:1.89789927" />
      <polygon
         id="polygon340"
         points="143.148,244.603 686.499,244.603 692.008,264.092 133.831,264.092 "
         style="fill:#192575;fill-opacity:1;stroke-width:1.89789927" />
      <path
         id="path342"
         transform="translate(-179,-110.81181)"
         d="m 925.87692,262.22309 c 0,0 -7.52619,19.353 -5.95407,38.50094 a 20.29311,20.29311 0 0 0 3.35473,9.58676 v 0 l -92.2042,43.77421 c 0,0 -41.66157,4.31346 -31.26423,22.50881 10.39734,18.19535 48.08771,-9.09767 48.08771,-9.09767 0,0 98.77475,-14.29635 106.57275,-28.59269 7.798,-14.29634 12.99668,-74.08106 12.99668,-74.08106 z"
         inkscape:connector-curvature="0"
         style="fill:#a0616a;stroke-width:1.89789927" />
      <path
         id="path344"
         transform="translate(-179,-110.81181)"
         d="m 929.77592,208.93671 h 19.495 c 0,0 14.29635,2.59934 18.19535,28.59269 3.899,25.99335 7.798,32.4917 3.899,32.4917 -3.899,0 -50.687,-1.29967 -50.687,-2.59934 0,-1.29967 9.09765,-58.48505 9.09765,-58.48505 z"
         inkscape:connector-curvature="0"
         style="fill:#d0cde1;stroke-width:1.89789927" />
      <circle
         id="circle346"
         r="100"
         cy="386.37637"
         cx="100"
         style="fill:#0e153a;stroke-width:1.89789927" />
      <circle
         id="circle348"
         r="86"
         cy="386.37637"
         cx="100"
         style="opacity:0.1;fill:#192575;fill-opacity:1;stroke-width:1.89789927" />
      <path
         id="path350"
         transform="translate(-179,-110.81181)"
         d="M 274.87909,547.93609 V 535.419 c -6.32734,-0.12344 -12.87306,-2.355 -16.69109,-5.45314 l 2.618,-8.30317 a 26.68122,26.68122 0 0 0 15.70942,5.3285 c 7.74578,0 12.98225,-5.081 12.98225,-12.14493 0,-6.81643 -4.2548,-11.02973 -12.32763,-14.74806 -11.12757,-4.957 -18.00034,-10.65821 -18.00034,-21.43985 0,-10.28668 6.43653,-18.09426 16.47324,-19.95312 v -12.51705 h 6.76358 v 12.02149 a 26.54267,26.54267 0 0 1 14.18228,4.33733 l -2.7277,8.17972 a 24.10671,24.10671 0 0 0 -13.74554,-4.21391 c -8.39987,0 -11.56381,5.70063 -11.56381,10.65821 0,6.44429 4.03642,9.66644 13.52769,14.12844 11.23623,5.20506 16.90948,11.64935 16.90948,22.67909 0,9.79049 -6.0003,18.962 -17.23706,21.06771 v 12.88981 z"
         inkscape:connector-curvature="0"
         style="fill:#f2f2f2;stroke-width:1.89789927" />
    </g>
  </g>
</svg>
